# xmcd
#
# Track frame offsets:
#	150
#	20404
#	38220
#	51236
#	63690
#	75695
#	92050
#	103867
#	125434
#	138376
#	148879
#	164858
#	182000
#	195091
#
# Disc length: 2810 seconds
#
# Revision: 0
# Processed by: cddbd v1.5.2PL0 Copyright (c) Steve Scherf et al.
# Submitted via: dBpowerAMP V4.0
#
DISCID=cb0af80e
DTITLE=Various Artist - ABC Monday Night Football
DYEAR=1900
DGENRE=General Soundtrack
TTITLE0=Magic Carpet Ride
TTITLE1=You Ain't Seen Nothing Yet
TTITLE2=Dumas Walker
TTITLE3=Take This Job And Shove It
TTITLE4=Soul Man
TTITLE5=Another One Bites The Dust
TTITLE6=Wild Thing
TTITLE7=Everybody Have Fun Tonight
TTITLE8=Are You Ready For Some Football
TTITLE9=When You're Hot, You're Hot
TTITLE10=Should've Been A Cowboy
TTITLE11=The Heat Is On
TTITLE12=Right Place, Wrong Time
TTITLE13=Keep Your Hands To Yourself
EXTD=abc monday night football
EXTT0=
EXTT1=
EXTT2=
EXTT3=
EXTT4=
EXTT5=
EXTT6=
EXTT7=
EXTT8=
EXTT9=
EXTT10=
EXTT11=
EXTT12=
EXTT13=
PLAYORDER=
